<?xml version="1.0" encoding="UTF-8"?>
<svg width="90.085mm" height="53.509mm" version="1.1" viewBox="0 0 340.48 202.24" xmlns="http://www.w3.org/2000/svg">
 <defs>
  <clipPath id="clipPath34">
   <path d="m43 647h255v152h-255z"/>
  </clipPath>
  <clipPath id="clipPath782">
   <path d="m48.006 677.24h36v32.64h-36z"/>
  </clipPath>
  <clipPath id="clipPath802">
   <path d="m256.33 677.24h35.76v32.4h-35.76z"/>
  </clipPath>
 </defs>
 <g transform="matrix(1.3333 0 0 -1.3333 -56.968 1065.6)">
  <g clip-path="url(#clipPath34)">
   <g transform="matrix(.24 0 0 .24 12.246 627.8)" fill="#000000" font-family="Calibri">
    <text transform="matrix(1 0 0 -1 370.25 639)" font-size="50px" xml:space="preserve"><tspan x="0 12.6 31.91 76.389999 101.27 112.575 148.315 174.67999 200.95 212.425 238.69501 250 261.47501 272.95001 295.67999 320.56 331.86499 348.61499 374.98001 386.285 422.02499 433.5 453.05499 479.32501 490.63 513.26001 539.625 565.89502" y="0">I/We would like to wish you,</tspan></text>
    <text transform="matrix(1 0 0 -1 162.43 562)" font-size="50px" xml:space="preserve"><tspan x="0 24.9 49.799999 74.699997 99.599998 124.5 149.39999 174.3 199.2 224.10001 249 273.89999 298.79999 323.70001 348.60001 373.5 398.39999 423.29999 448.20001 473.10001 498 522.90002 547.79999 572.70001 597.59998 622.5 647.40002 672.29999 697.20001 722.09998 747 771.90002 796.79999 821.70001 846.59998 871.5 896.40002 921.29999 946.20001 958.67499 969.97998" y="0">______________________________________, a</tspan></text>
    <text transform="matrix(1 0 0 -1 225.63 462)" font-size="92px" font-style="italic" xml:space="preserve"><tspan x="0 57.113602 104.2912 151.4688 198.64639 239.66 260.43359 312.48721 359.66479 380.71439 424.48801 471.66559 502.37521 523.4248 570.60242 614.37598 637.26562 672.94318 693.7168 750.09442 797.27197 838.28558" y="0">Happy Valentine’s Day!</tspan></text>
    <g font-size="50px">
     <text transform="matrix(1 0 0 -1 265.54 378)" xml:space="preserve"><tspan x="0 23.950001 50.220001 76.489998 87.794998 107.35 131.3 153.92999 165.235 190.13499 215.035 239.935 264.83499 289.73499 314.63501 339.535 364.435 389.33499 414.23499 439.13501 464.035 488.935 513.83502 538.73499 563.63501 588.53497 613.435 638.33502 663.23499 688.13501 713.03497 737.935 762.83502" y="0">and say _________________________</tspan></text>
     <text transform="matrix(1 0 0 -1 310.8 293)" xml:space="preserve"><tspan x="0 24.9 49.799999 74.699997 99.599998 124.5 149.39999 174.3 199.2 224.10001 249 273.89999 298.79999 323.70001 348.60001 373.5 398.39999 423.29999 448.20001 473.10001 498 522.90002 547.79999 572.70001 597.59998 622.5 647.40002 672.29999" y="0">____________________________</tspan></text>
     <text transform="matrix(1 0 0 -1 310.8 207)" xml:space="preserve"><tspan x="0 24.9 49.799999 74.699997 99.599998 124.5 149.39999 174.3 199.2 224.10001 249 273.89999 298.79999 323.70001 348.60001 373.5 398.39999 423.29999 448.20001 473.10001 498 522.90002 547.79999 572.70001 597.59998 622.5 647.40002 672.29999" y="0">____________________________</tspan></text>
     <text transform="matrix(1 0 0 -1 289.15 122)" xml:space="preserve"><tspan x="0 22.975 40.404999 66.769997 106.71 118.015 142.91499 167.815 192.715 217.61501 242.515 267.41501 292.315 317.215 342.11499 367.01501 391.91501 416.815 441.715 466.61499 491.51501 516.41498 541.315 566.21503 591.11499 616.01501 640.91498 665.815 690.71503 715.61499" y="0">From _________________________</tspan></text>
    </g>
   </g>
  </g>
  <g clip-path="url(#clipPath782)">
   <path d="m84.602 694.65v18.366h-38.055v-36.731h38.055z" fill="#0e0d0e"/>
   <path d="m84.602 694.65v18.366h-38.055v-36.731h38.055zm-17.436-13.54c-3.5634 1.9086-6.4694 4.2133-8.9257 7.0222-2.0411 2.3407-4.2553 6.2299-4.6012 8.0304-0.10379 0.6482-0.38055 1.5485-0.58813 1.9806-0.51893 1.1164-0.06919 2.5568 1.2454 3.9252 2.8368 2.9529 8.0954 1.3684 11.97-3.7091 0.65732-0.8643 1.3146-1.5485 1.4184-1.5485 0.20758 0 1.1762 2.5568 1.5914 4.1413 0.06919 0.3961 0.89949 1.8365 1.799 3.241 1.7644 2.7368 3.5979 4.1412 5.4315 4.1412 1.3838 0 3.252-1.8365 3.252-3.277 0-0.5401 0.13839-1.1163 0.34596-1.2244 0.7957-0.5041-0.10379-10.479-1.0725-11.524-0.17298-0.18-0.31137-0.5401-0.31137-0.8282 0-0.8283-2.3525-5.4737-3.6671-7.2742-1.9028-2.5568-3.9439-4.6814-4.4628-4.6814-0.27677 0-1.8336 0.7202-3.425 1.5844z" fill="#b9b8b8"/>
   <path d="m71.664 682.84c2.5947 2.9169 5.2931 7.9944 6.1926 11.632 0.51894 2.1246 0.69192 8.1025 0.31136 10.191-0.27676 1.4044-1.4876 2.1246-2.5947 1.5125-1.0379-0.5402-2.7331-2.1967-2.7331-2.5928 0-0.1801-0.38055-0.9363-0.86489-1.6565s-0.86489-1.6205-0.86489-1.9446c0-0.3601-0.13838-0.6482-0.31136-0.6482s-0.55353-1.0803-0.89949-2.4488c-1.1416-4.7534-1.5914-5.0415-3.3212-2.1606-2.8368 4.8615-5.6391 7.1301-8.8219 7.1301-2.1795 0-2.906-0.6842-2.906-2.8088 0-0.7922 0.13838-1.5485 0.31136-1.6565 0.13838-0.108 0.38055-0.6482 0.48434-1.1884 0.51893-2.7368 5.7083-9.1107 9.583-11.884 1.9374-1.3324 4.3245-2.6288 4.9472-2.6288 0.24217 0 0.93408 0.5402 1.4876 1.1524z" fill="#b9b8b8"/>
   <g fill="#fff">
    <path d="m84.602 694.65v18.366h-38.055v-36.731h38.055zm-16.571-16.241c-0.27677 0.1801-0.51894 0.7202-0.58813 1.1884-0.03459 0.4321-0.10378 0.9003-0.10378 1.0083-0.0346 0.108-0.51894 0.5041-1.0725 0.8642-0.89949 0.5402-1.5568 0.6122-4.2553 0.4322-1.7644-0.1081-3.9093-0.3961-4.8088-0.6482-1.453-0.3601-1.7298-0.3601-2.3525 0.2521-0.38056 0.3601-0.69192 1.1163-0.69192 1.6565 0 0.8282 0.31136 1.2243 1.453 1.9806 1.2454 0.8282 1.3492 1.0083 0.8303 1.2964-0.31137 0.18-0.7957 0.252-1.0379 0.18-0.72651-0.2881-1.2108 0.4682-1.0033 1.5845 0.13839 0.7922 0.06919 1.0443-0.38055 1.0443-1.0033 0-2.0066 1.4044-1.7644 2.4488 0.13838 0.5401 0.38055 1.0803 0.58813 1.1883 0.20757 0.1441 0.03459 0.3601-0.38055 0.5042-0.38056 0.108-0.72651 0.3961-0.72651 0.5761 0 0.1801-0.31136 0.3241-0.72651 0.3241-1.2108 0-2.1103 0.6843-1.8682 1.4765 0.13839 0.3601 0.0692 0.6842-0.13838 0.6842-0.72651 0 0.06919 1.1163 1.5914 2.1607 0.8303 0.6121 1.6606 1.0803 1.8336 1.0803s0.55353 0.4681 0.86489 1.0443c1.3146 2.7008 4.0823 3.4931 7.5418 2.1607 1.1763-0.4322 2.2487-0.9723 2.3525-1.1524 0.13838-0.18 0.7611-0.2521 1.3838-0.108 0.65732 0.108 1.4876 0.2521 1.8682 0.3241s1.0379 0.3241 1.4184 0.5401c0.38055 0.2161 1.0379 0.2881 1.453 0.1801s0.7611-0.036 0.7611 0.1801c0 0.216 0.20758 0.6121 0.44975 0.8642 0.24216 0.2521 0.89948 1.0803 1.453 1.8366 1.1071 1.5484 3.1136 2.7728 4.6012 2.7728 1.3146 0 3.1828-1.9086 3.1828-3.277 0-0.5401 0.13839-1.1163 0.34596-1.2244 0.17298-0.108 0.34596-0.8282 0.34596-1.5844 0-1.2964 0.06919-1.4045 1.1416-1.6205 1.0725-0.2161 1.1417-0.2881 1.0033-1.5125-0.10379-0.9723-0.41515-1.4764-1.3146-2.0526-1.28-0.8643-1.6952-2.4848-0.55353-2.1607 1.9374 0.5042 3.4596-1.6565 2.3871-3.421-0.44974-0.8283-0.44974-1.0443 0.0346-2.1607 0.58812-1.2243 0.58812-1.2243-0.44975-2.0886-0.55353-0.4321-2.3179-1.2604-3.9439-1.8005-3.8055-1.2604-4.4628-1.7286-4.878-3.3491-0.31136-1.2603-2.0411-3.349-3.1136-3.7451-0.83029-0.3241-2.2141-0.2521-2.733 0.072z"/>
    <path d="m58.483 700.99 0.93408 0.3961-1.0725 0.2161c-0.65732 0.144-1.5568 0.036-2.2141-0.2521l-1.1071-0.4681 1.2454-0.1441c0.69191-0.108 1.6952 0 2.2141 0.2521z"/>
    <path d="m74.639 703.84c0.20757 0.2161 1.6952 0.5402 2.7676 0.6482 0.89949 0.0721 0.7611 1.1524-0.24217 1.6926-0.7611 0.4321-1.0033 0.3601-2.2141-0.4682-0.93408-0.6482-1.3146-1.1523-1.2108-1.5124 0.20757-0.5402 0.55353-0.6842 0.89949-0.3602z"/>
   </g>
  </g>
  <g clip-path="url(#clipPath802)">
   <path d="m255.57 694.62v18.349h38.02v-36.698h-38.02z" fill="#0e0d0e"/>
   <path d="m255.57 694.62v18.349h38.02v-36.698h-38.02zm17.42-13.528c3.5601 1.9068 6.4634 4.2094 8.9175 7.0157 2.0393 2.3386 4.2514 6.2243 4.597 8.0232 0.1037 0.6476 0.3802 1.547 0.5876 1.9788 0.5185 1.1153 0.0691 2.5544-1.2443 3.9216-2.8343 2.9502-8.088 1.3671-11.959-3.7058-0.6567-0.8634-1.3134-1.547-1.4171-1.547-0.2074 0-1.1752 2.5544-1.59 4.1375-0.0691 0.3957-0.8986 1.8348-1.7973 3.238-1.7628 2.7343-3.5947 4.1375-5.4265 4.1375-1.3826 0-3.2491-1.8349-3.2491-3.274 0-0.5397-0.1382-1.1154-0.3456-1.2233-0.795-0.5037 0.1037-10.47 1.0715-11.513 0.1728-0.1799 0.3111-0.5397 0.3111-0.8275 0-0.8275 2.3503-5.4687 3.6637-7.2676 1.9011-2.5544 3.9404-4.6771 4.4588-4.6771 0.2765 0 1.8319 0.7195 3.4219 1.583z" fill="#b9b8b8"/>
   <path d="m268.5 682.82c-2.5923 2.9142-5.2883 7.9871-6.1869 11.621-0.5185 2.1227-0.6913 8.0951-0.3111 10.182 0.2765 1.4032 1.4862 2.1227 2.5923 1.5111 1.0369-0.5397 2.7305-2.1947 2.7305-2.5904 0-0.1799 0.3803-0.9355 0.8641-1.655 0.4839-0.7196 0.8642-1.6191 0.8642-1.9429 0-0.3597 0.1382-0.6476 0.311-0.6476s0.5531-1.0793 0.8987-2.4465c1.1406-4.7491 1.5899-5.0369 3.3181-2.1587 2.8343 4.8571 5.634 7.1237 8.8139 7.1237 2.1775 0 2.9034-0.6836 2.9034-2.8063 0-0.7915-0.1383-1.547-0.3111-1.655-0.1383-0.1079-0.3802-0.6476-0.4839-1.1873-0.5185-2.7343-5.7031-9.1024-9.5743-11.873-1.9355-1.3312-4.3205-2.6264-4.9426-2.6264-0.242 0-0.9332 0.5396-1.4863 1.1513z" fill="#b9b8b8"/>
   <g fill="#fff">
    <path d="m255.57 694.62v18.349h38.02v-36.698h-38.02zm16.556-16.226c0.2765 0.1799 0.5184 0.7196 0.5875 1.1873 0.0346 0.4318 0.1037 0.8995 0.1037 1.0074 0.0346 0.1079 0.5185 0.5037 1.0715 0.8635 0.8987 0.5397 1.5554 0.6116 4.2514 0.4317 1.7628-0.1079 3.9057-0.3957 4.8044-0.6476 1.4517-0.3598 1.7282-0.3598 2.3504 0.2519 0.3802 0.3597 0.6913 1.1153 0.6913 1.655 0 0.8275-0.3111 1.2232-1.4517 1.9788-1.2443 0.8275-1.348 1.0073-0.8296 1.2952 0.3111 0.1799 0.795 0.2518 1.0369 0.1799 0.7259-0.2879 1.2098 0.4677 1.0024 1.583-0.1383 0.7915-0.0691 1.0434 0.3802 1.0434 1.0024 0 2.0047 1.4031 1.7628 2.4465-0.1383 0.5396-0.3802 1.0793-0.5876 1.1873-0.2074 0.1439-0.0346 0.3597 0.3802 0.5036 0.3802 0.108 0.7258 0.3958 0.7258 0.5757s0.3111 0.3238 0.7259 0.3238c1.2097 0 2.1084 0.6836 1.8664 1.4751-0.1382 0.3598-0.0691 0.6836 0.1383 0.6836 0.7258 0-0.0691 1.1153-1.5899 2.1587-0.8296 0.6116-1.6591 1.0793-1.8319 1.0793-0.1729 0-0.5531 0.4677-0.8641 1.0434-1.3135 2.6983-4.0786 3.4899-7.535 2.1587-1.1752-0.4318-2.2467-0.9714-2.3504-1.1513-0.1382-0.1799-0.7604-0.2519-1.3825-0.108-0.6568 0.108-1.4863 0.2519-1.8665 0.3238-0.3802 0.072-1.0369 0.3238-1.4171 0.5397s-1.0369 0.2878-1.4517 0.1799-0.7604-0.036-0.7604 0.1799-0.2074 0.6116-0.4494 0.8635c-0.2419 0.2518-0.8986 1.0793-1.4517 1.8349-1.106 1.547-3.1107 2.7703-4.597 2.7703-1.3134 0-3.1799-1.9069-3.1799-3.274 0-0.5397-0.1382-1.1154-0.3456-1.2233-0.1728-0.1079-0.3457-0.8275-0.3457-1.583 0-1.2952-0.0691-1.4032-1.1406-1.619-1.0715-0.2159-1.1406-0.2879-1.0023-1.5111 0.1037-0.9714 0.4147-1.4751 1.3134-2.0508 1.2789-0.8635 1.6936-2.4825 0.553-2.1587-1.9356 0.5037-3.4564-1.655-2.3849-3.4179 0.4493-0.8275 0.4493-1.0434-0.0346-2.1587-0.5875-1.2232-0.5875-1.2232 0.4494-2.0867 0.553-0.4318 2.3158-1.2592 3.9403-1.7989 3.802-1.2593 4.4588-1.727 4.8735-3.346 0.3111-1.2592 2.0393-3.346 3.1108-3.7417 0.8295-0.3238 2.2121-0.2519 2.7306 0.0719z"/>
    <path d="m281.67 700.95-0.9332 0.3958 1.0715 0.2159c0.6567 0.1439 1.5554 0.0359 2.2121-0.2519l1.1061-0.4677-1.2444-0.1439c-0.6912-0.1079-1.6936 0-2.2121 0.2518z"/>
    <path d="m265.53 703.79c-0.2074 0.2159-1.6936 0.5397-2.7651 0.6476-0.8987 0.072-0.7604 1.1513 0.2419 1.691 0.7604 0.4317 1.0024 0.3598 2.2121-0.4677 0.9333-0.6476 1.3135-1.1513 1.2098-1.5111-0.2074-0.5397-0.553-0.6836-0.8987-0.3598z"/>
   </g>
  </g>
 </g>
</svg>
