<svg xmlns="http://www.w3.org/2000/svg"
     width="600" height="400" viewBox="0 0 6000 4000">
    <g stroke-width="1" fill-rule="evenodd">
        <path d="M0 2480 L0 2385C0 2332 0 2287 0 2285 C0 2282 0 2257 0 2230 L0 2180L0 2180 L5 2180C7 2180 14 2180 19 2180 C24 2180 34 2160 40 2137 C46 2114 72 2059 97 2015 C121 1971 156 1920 172 1902 L203 1870 157 1821 C132 1794 100 1750 87 1723 C73 1696 56 1650 50 1620 C42 1583 39 1492 41 1345 C44 1164 48 1115 63 1075 C73 1047 98 989 119 945 C141 901 184 833 216 795 C249 756 312 695 357 659 C402 623 481 570 532 542 C583 514 662 477 707 461 C753 444 827 421 872 410 C918 399 1020 380 1100 368 C1220 350 1290 346 1515 345 C1680 345 1825 350 1890 357 C1947 365 2026 375 2065 381 C2103 386 2193 402 2264 416 C2335 429 2395 437 2399 432 C2402 427 2419 403 2437 377 C2455 352 2494 309 2524 282 C2555 255 2613 214 2655 190 C2696 166 2756 137 2787 124 C2819 111 2883 90 2931 76 C2978 62 3064 45 3121 38 C3184 31 3227 20 3232 13 L3240 0L3240 0 L3515 0C3666 0 3792 0 3795 0 C3797 0 3820 0 3845 0 L3890 0L3890 0 L3885 13C3882 24 3899 29 3953 34 C3992 38 4076 52 4140 66 C4203 80 4302 109 4361 130 C4420 151 4507 187 4556 211 C4605 234 4692 285 4749 324 C4813 367 4901 439 4973 509 C5039 573 5142 683 5204 755 C5265 826 5347 927 5386 980 C5425 1032 5479 1108 5506 1150 C5534 1191 5586 1276 5623 1340 C5659 1403 5715 1513 5746 1585 C5777 1656 5820 1765 5841 1828 C5862 1890 5888 1975 5899 2018 C5909 2060 5927 2144 5939 2205 C5950 2265 5960 2335 5960 2360 C5960 2384 5963 2421 5966 2442 C5969 2463 5976 2480 5981 2480 C5986 2480 5992 2480 5995 2480 L6000 2480L6000 2480 L6000 2620C6000 2697 6000 2762 6000 2765 C6000 2767 6000 2790 6000 2815 L6000 2860L6000 2860 L5993 2860C5989 2860 5984 2862 5980 2865 C5977 2868 5966 2899 5955 2933 L5935 2995 5876 2998 L5817 3001 5824 3038 C5828 3058 5833 3180 5836 3310 C5841 3518 5839 3556 5821 3652 C5810 3711 5788 3787 5774 3819 C5759 3852 5740 3885 5731 3893 C5721 3901 5670 3912 5605 3919 C5544 3926 5441 3936 5375 3942 C5306 3949 5075 3953 4835 3953 C4530 3952 4363 3947 4230 3935 C4128 3926 3991 3914 3925 3909 C3859 3904 3742 3892 3665 3884 C3588 3875 3468 3862 3400 3853 C3331 3845 3196 3827 3100 3814 C3003 3800 2871 3780 2805 3769 C2739 3758 2640 3740 2585 3730 C2530 3719 2410 3695 2320 3676 C2229 3657 2072 3620 1971 3595 C1869 3570 1714 3529 1625 3505 C1535 3480 1373 3429 1263 3391 C1154 3353 1011 3299 945 3270 C879 3242 781 3197 729 3170 C676 3143 584 3092 524 3055 C464 3018 381 2963 341 2931 C300 2900 236 2842 199 2802 C162 2762 112 2692 87 2648 C61 2603 38 2549 34 2527 C30 2506 21 2486 14 2484 L0 2480M4662 3851 C4226 3834 3821 3796 3210 3715 C2503 3621 1628 3409 1120 3207 C956 3143 699 3018 580 2945 C202 2715 26 2448 69 2170 C83 2077 114 2008 168 1950 L209 1905 209 2012 C209 2118 204 2134 179 2105 C173 2096 156 2090 143 2090 C113 2090 112 2119 138 2205 C177 2333 301 2501 443 2619 C488 2656 522 2693 529 2712 C538 2737 542 2740 554 2730 C566 2720 578 2724 617 2753 C659 2784 808 2868 945 2938 C967 2949 1048 2982 1125 3012 C1240 3057 1265 3070 1268 3088 C1271 3113 1282 3115 1299 3095 C1317 3073 1336 3076 1354 3102 C1365 3118 1380 3124 1412 3125 C1435 3126 1502 3141 1560 3158 C1689 3197 2052 3289 2215 3325 C3211 3540 4180 3652 5025 3651 C5435 3650 5622 3639 5657 3613 C5694 3587 5727 3519 5746 3429 C5775 3291 5767 3234 5721 3242 C5699 3246 5692 3267 5681 3368 C5670 3469 5637 3552 5607 3558 C5591 3561 5590 3542 5592 3286 L5593 3012 5659 3007 C5695 3004 5728 3005 5732 3009 C5753 3027 5792 3417 5783 3520 C5769 3691 5755 3774 5739 3790 C5727 3802 5698 3810 5653 3814 C5615 3817 5540 3825 5485 3830 C5431 3835 5319 3842 5238 3845 C5156 3847 5042 3852 4985 3855 C4927 3857 4782 3856 4662 3851 M4547 3570 C4120 3542 3903 3523 3585 3485 C3095 3426 2469 3313 1950 3188 C1775 3146 1447 3054 1416 3037 C1399 3028 1398 3012 1401 2774 C1403 2634 1405 2520 1405 2520 C1405 2520 1481 2545 1575 2575 C1852 2666 2284 2771 2620 2829 C3197 2930 3733 2981 4495 3010 C4758 3020 5440 3018 5520 3008 L5545 3005 5547 3285 L5550 3566 5410 3573 C5205 3583 4712 3581 4547 3570 M1323 3011 C1309 3004 1307 2975 1309 2744 C1310 2602 1313 2483 1315 2481 C1317 2479 1330 2484 1344 2493 L1370 2510 1365 2760 C1362 2911 1356 3011 1350 3015 C1344 3017 1332 3016 1323 3011 M1209 2971 C1186 2961 1165 2948 1161 2942 C1158 2936 1155 2820 1156 2683 C1157 2406 1150 2427 1227 2451 L1260 2461 1260 2725 C1260 2871 1257 2990 1255 2990 C1252 2990 1231 2981 1209 2971 M1043 2897 L986 2865 989 2610 C990 2470 992 2354 993 2352 C995 2351 1024 2364 1058 2382 L1120 2414 1120 2667 C1120 2825 1116 2921 1110 2925 C1104 2927 1074 2915 1043 2897 M885 2829 L860 2808 860 2554 C860 2311 860 2300 878 2300 C889 2300 907 2307 919 2317 C940 2334 940 2338 935 2587 C932 2740 926 2841 920 2845 C914 2847 898 2840 885 2829 M5557 2821 C5206 2810 4816 2793 4610 2780 C3887 2731 3622 2706 3125 2638 C1908 2474 1081 2220 562 1851 C353 1703 188 1503 133 1331 C109 1257 104 1075 123 1009 C170 845 342 693 606 579 C671 551 853 503 970 483 C1120 457 1732 457 1925 483 C2100 507 2277 537 2317 551 C2358 564 2367 557 2404 485 C2470 354 2670 228 2900 171 C3065 131 3219 116 3475 115 C3649 115 3749 120 3840 133 C4205 183 4511 300 4752 480 C4980 651 5312 1040 5507 1365 C5658 1617 5780 1902 5843 2156 C5897 2368 5912 2484 5911 2657 L5910 2820 5885 2825 C5871 2827 5723 2826 5557 2821 M2423 2264 C2420 2255 2421 2244 2427 2238 C2438 2227 2544 2211 2807 2180 C3212 2132 3332 2117 3465 2099 C3542 2089 3663 2073 3735 2065 C3806 2056 3973 2036 4105 2019 C4237 2003 4419 1980 4510 1969 C4600 1959 4783 1936 4915 1919 C5363 1862 5360 1862 5360 1894 C5360 1913 5353 1914 5135 1939 C5036 1951 4928 1964 4895 1970 C4862 1975 4720 1993 4580 2009 C4439 2026 4291 2044 4250 2050 C4151 2063 3867 2098 3760 2110 C3713 2115 3643 2124 3605 2130 C3566 2135 3350 2162 3125 2190 C2770 2233 2630 2251 2465 2275 C2439 2278 2428 2275 2423 2264 M1889 2157 C1889 2145 1887 2118 1883 2098 C1876 2053 1876 2053 2044 2034 C2116 2025 2224 2012 2285 2004 C2564 1968 2982 1915 3270 1879 C3443 1857 3616 1835 3655 1830 C3693 1824 3905 1797 4125 1769 C4690 1698 5118 1644 5310 1618 C5533 1589 5513 1587 5523 1636 C5541 1721 5539 1723 5372 1743 C5291 1752 5137 1771 5030 1785 C4922 1799 4801 1814 4760 1819 C4718 1824 4615 1837 4530 1849 C4444 1860 4213 1890 4015 1915 C3566 1971 2901 2056 2795 2070 C2235 2142 1935 2180 1915 2180 C1895 2180 1889 2174 1889 2157 M1427 1934 C1351 1915 1206 1863 1160 1837 C1002 1751 854 1589 824 1471 C801 1380 832 1346 953 1330 C1016 1322 1045 1323 1108 1335 C1150 1344 1190 1354 1196 1358 C1226 1374 1359 1513 1352 1520 C1348 1525 1329 1529 1310 1531 C1225 1537 1214 1532 1137 1460 C1067 1394 1059 1390 1016 1390 C991 1390 968 1394 965 1399 C961 1405 973 1444 991 1487 C1019 1554 1036 1577 1114 1655 C1215 1757 1263 1788 1370 1825 C1449 1852 1484 1855 1524 1840 C1555 1828 1589 1774 1589 1736 C1589 1712 1592 1709 1612 1715 C1679 1735 1707 1812 1668 1870 C1630 1925 1515 1956 1427 1934 M1830 1852 C1778 1823 1455 1518 1388 1435 C1367 1408 1331 1373 1309 1357 C1263 1323 1259 1303 1295 1289 C1370 1261 1436 1291 1508 1388 C1537 1427 1588 1490 1622 1528 C1657 1565 1707 1622 1734 1654 C1761 1686 1785 1708 1787 1702 C1792 1688 1723 1551 1697 1522 C1669 1492 1682 1480 1753 1473 C1822 1465 1844 1478 1896 1556 C1975 1675 2077 1756 2100 1718 C2120 1688 2107 1655 2045 1571 C2009 1523 1980 1477 1980 1468 C1980 1451 2041 1434 2141 1423 C2222 1414 2332 1485 2418 1600 C2472 1671 2494 1684 2531 1666 C2569 1647 2564 1623 2511 1562 C2466 1510 2394 1400 2402 1395 C2403 1394 2433 1383 2467 1370 C2531 1346 2597 1347 2645 1372 C2679 1390 2790 1491 2790 1505 C2790 1520 2732 1530 2703 1519 C2691 1514 2656 1488 2625 1460 C2577 1416 2540 1397 2540 1415 C2540 1429 2633 1541 2687 1591 C2750 1649 2817 1678 2859 1665 C2871 1661 2891 1636 2906 1607 L2931 1557 2892 1516 C2846 1467 2769 1359 2770 1342 C2770 1334 2784 1330 2807 1330 C2828 1330 2863 1320 2885 1309 C2922 1290 2926 1290 2979 1305 C3054 1327 3139 1389 3205 1471 C3235 1508 3269 1544 3280 1550 C3305 1563 3336 1554 3350 1529 C3358 1513 3349 1500 3287 1443 C3247 1406 3188 1348 3155 1315 C3088 1246 2949 1075 2950 1061 C2950 1043 3021 1027 3084 1031 C3164 1036 3237 1078 3334 1175 C3411 1251 3450 1326 3450 1401 C3449 1455 3462 1475 3517 1510 C3596 1560 3648 1545 3656 1469 C3661 1430 3657 1419 3629 1385 C3590 1336 3560 1277 3560 1251 C3560 1209 3624 1178 3683 1191 C3704 1196 3760 1203 3808 1207 L3894 1215 3932 1270 C3953 1300 3995 1351 4026 1382 C4071 1428 4089 1440 4109 1437 C4131 1435 4135 1429 4138 1393 C4140 1356 4136 1345 4103 1309 C4083 1286 4046 1255 4023 1238 C3992 1217 3977 1199 3970 1172 C3963 1147 3939 1114 3900 1075 C3867 1042 3840 1012 3840 1008 C3840 993 3900 969 3924 974 C3938 977 3961 982 3974 985 C3991 988 4011 1009 4035 1047 C4091 1134 4108 1149 4150 1150 C4176 1150 4198 1158 4226 1180 C4284 1226 4288 1240 4245 1240 C4225 1240 4210 1244 4210 1250 C4210 1269 4303 1370 4349 1400 C4404 1437 4433 1438 4448 1404 C4468 1360 4461 1334 4417 1283 C4393 1256 4356 1211 4335 1181 L4297 1128 4317 1107 C4349 1075 4448 1058 4503 1075 C4567 1094 4625 1126 4670 1166 C4733 1223 4734 1302 4672 1315 C4617 1327 4609 1331 4616 1341 C4626 1359 4703 1389 4736 1389 C4756 1389 4780 1380 4799 1364 C4825 1341 4830 1331 4830 1290 C4829 1249 4823 1233 4780 1174 C4752 1136 4720 1092 4708 1077 C4679 1042 4691 1030 4761 1018 C4809 1011 4816 1012 4839 1034 C4869 1062 4974 1126 5060 1170 C5124 1202 5203 1275 5215 1311 C5220 1326 5212 1341 5183 1371 C5162 1393 5137 1415 5128 1420 C5105 1432 4989 1396 4965 1370 C4938 1340 4917 1345 4895 1385 C4874 1424 4831 1454 4782 1464 C4743 1472 4642 1448 4578 1415 C4552 1402 4528 1394 4525 1397 C4522 1400 4520 1416 4520 1432 C4520 1475 4480 1510 4431 1510 C4372 1510 4271 1475 4238 1443 C4214 1420 4210 1419 4210 1434 C4210 1443 4194 1467 4174 1487 C4143 1518 4136 1521 4102 1515 C4082 1511 4053 1501 4038 1494 C3996 1472 3986 1475 3993 1509 C3997 1532 3993 1546 3976 1566 L3952 1593 3891 1576 C3857 1567 3808 1546 3782 1530 L3735 1500 3728 1522 C3724 1535 3719 1557 3715 1572 C3702 1632 3544 1633 3459 1574 L3420 1547 3399 1573 C3383 1593 3368 1599 3332 1601 C3286 1604 3284 1606 3281 1637 C3277 1681 3252 1692 3169 1688 C3113 1685 3092 1678 3043 1647 L2985 1611 2978 1641 C2957 1740 2824 1769 2681 1705 C2623 1679 2618 1678 2601 1693 C2591 1702 2569 1710 2552 1710 C2505 1710 2490 1719 2489 1748 C2489 1790 2476 1800 2417 1806 C2351 1813 2280 1792 2223 1749 C2179 1716 2170 1713 2170 1735 C2170 1744 2156 1765 2139 1782 C2111 1809 2104 1811 2064 1806 C1999 1797 1963 1776 1886 1701 L1818 1635 1850 1700 C1867 1735 1897 1783 1916 1806 C1934 1829 1950 1855 1950 1864 C1950 1889 1886 1883 1830 1852 M2337 1721 C2292 1691 2120 1515 2120 1499 C2120 1482 2146 1489 2165 1511 C2196 1545 2300 1623 2367 1663 C2416 1693 2430 1706 2430 1725 C2430 1759 2391 1758 2337 1721 M3132 1606 C3072 1563 2958 1444 2936 1402 C2917 1365 2927 1359 2955 1391 C2988 1427 3092 1505 3151 1539 C3223 1579 3234 1592 3220 1619 C3205 1648 3187 1645 3132 1606 M2290 1557 C2258 1528 2233 1503 2235 1501 C2242 1494 2304 1538 2332 1569 C2378 1620 2353 1613 2290 1557 M3871 1481 C3806 1432 3700 1287 3700 1247 C3700 1232 3704 1230 3722 1235 C3765 1249 3802 1283 3866 1369 C3950 1482 3953 1542 3871 1481 M3092 1445 C3060 1416 3037 1389 3040 1385 C3044 1382 3072 1404 3103 1434 C3134 1465 3157 1492 3155 1495 C3152 1497 3124 1475 3092 1445 M3251 1261 C3135 1135 3103 1093 3113 1082 C3127 1068 3266 1185 3320 1257 C3368 1320 3384 1355 3370 1370 C3363 1376 3323 1340 3251 1261 M5003 1321 C4978 1299 4945 1279 4931 1276 C4910 1272 4897 1257 4872 1205 C4838 1137 4839 1126 4874 1159 C4885 1169 4942 1207 4999 1242 C5100 1303 5126 1331 5100 1351 C5079 1368 5049 1359 5003 1321 M4554 1279 C4530 1262 4439 1128 4446 1118 C4460 1095 4546 1151 4579 1205 C4590 1221 4603 1247 4609 1262 C4619 1288 4618 1290 4595 1290 C4581 1290 4563 1285 4554 1279 M495 1251 C492 1246 487 1217 483 1187 L477 1131 521 1125 C574 1118 848 1084 1019 1064 C1088 1056 1153 1047 1164 1044 C1175 1042 1398 1012 1660 979 C1921 946 2184 912 2245 904 C2631 854 2754 838 2830 829 C2876 824 2966 813 3030 804 C3330 764 3746 710 3835 700 C3910 691 4453 620 4571 604 L4617 597 4623 636 C4632 688 4631 729 4622 730 C4613 730 4466 749 3960 814 C3501 874 3209 912 2875 954 C2556 995 2208 1040 1985 1069 C1897 1081 1703 1106 1555 1125 C1406 1144 1128 1180 937 1204 C496 1262 500 1261 495 1251 M875 963 C872 960 874 949 879 940 C886 927 907 920 957 916 C994 912 1072 902 1130 895 C1187 887 1307 871 1395 860 C1483 848 1602 832 1660 824 C1717 816 1870 796 2000 779 C2129 763 2336 736 2460 719 C2583 703 2705 687 2730 684 C2754 681 2840 669 2920 659 C2999 648 3101 635 3145 629 C3189 623 3256 614 3295 609 C3371 598 3582 571 3835 539 C3923 528 4017 514 4044 509 C4081 501 4096 502 4106 512 C4136 541 4104 553 3923 575 C3825 588 3693 605 3630 614 C3566 622 3427 641 3320 655 C2946 704 2824 720 2680 739 C2600 750 2476 766 2405 775 C2333 783 2248 795 2215 800 C2182 805 2083 818 1995 830 C1907 841 1801 855 1760 860 C1718 866 1651 874 1610 879 C1568 884 1416 904 1272 924 C986 963 882 973 875 963 M759 2757 L709 2725 712 2472 C713 2333 716 2220 718 2220 C720 2220 744 2231 771 2246 L820 2273 820 2531 C820 2673 817 2790 815 2790 C812 2790 787 2775 759 2757 M601 2654 L562 2619 562 2406 C562 2289 559 2178 555 2161 C551 2144 551 2130 555 2130 C559 2130 586 2143 616 2160 L670 2191 670 2440 C670 2720 670 2717 601 2654 M475 2552 L440 2514 440 2287 C440 2121 443 2060 451 2060 C457 2060 477 2070 494 2083 L525 2107 527 2348 C529 2504 526 2590 520 2590 C514 2590 494 2572 475 2552 M361 2442 C344 2417 343 2396 347 2202 C350 2085 356 1990 360 1990 C364 1990 375 1997 384 2005 C397 2019 400 2055 400 2245 C400 2388 396 2470 390 2470 C384 2470 371 2457 361 2442 M261 2312 C240 2272 235 2204 238 2017 C239 1953 244 1910 250 1910 C255 1910 269 1919 280 1930 C298 1948 300 1963 300 2150 C300 2276 296 2350 290 2350 C284 2350 271 2333 261 2312 "></path>
    </g>
</svg>