<svg class="img-fluid" id="outputsvg" xmlns="http://www.w3.org/2000/svg" style="transform: matrix(2.8561, 0, 0, 2.8561, 28.9711, 128.224); transform-origin: 50% 50%; cursor: move; transition: none 0s ease 0s;" width="116" height="110" viewBox="0 0 1160 1100"><g id="l5GEvqgpWyKMjqSd8zmy205" fill="rgb(14,13,14)" style="transform: none;"><g><path id="p1EVeticLt" d="M10 530 l0 -510 550 0 550 0 0 510 0 510 -550 0 -550 0 0 -510z"></path></g></g><g id="l4dpeC94MJu3DBrzsOLDR3a" fill="rgb(185,184,184)" style="transform: none;"><g><path id="pmvsTCx8U" d="M10 530 l0 -510 550 0 550 0 0 510 0 510 -550 0 -550 0 0 -510z m504 376 c103 -53 187 -117 258 -195 59 -65 123 -173 133 -223 3 -18 11 -43 17 -55 15 -31 2 -71 -36 -109 -82 -82 -234 -38 -346 103 -19 24 -38 43 -41 43 -6 0 -34 -71 -46 -115 -2 -11 -26 -51 -52 -90 -51 -76 -104 -115 -157 -115 -40 0 -94 51 -94 91 0 15 -4 31 -10 34 -23 14 3 291 31 320 5 5 9 15 9 23 0 23 68 152 106 202 55 71 114 130 129 130 8 0 53 -20 99 -44z"></path><path id="pzqb2JG6w" d="M384 858 c-75 -81 -153 -222 -179 -323 -15 -59 -20 -225 -9 -283 8 -39 43 -59 75 -42 30 15 79 61 79 72 0 5 11 26 25 46 14 20 25 45 25 54 0 10 4 18 9 18 5 0 16 30 26 68 33 132 46 140 96 60 82 -135 163 -198 255 -198 63 0 84 19 84 78 0 22 -4 43 -9 46 -4 3 -11 18 -14 33 -15 76 -165 253 -277 330 -56 37 -125 73 -143 73 -7 0 -27 -15 -43 -32z"></path></g></g><g id="l3k4FdR59m9BUMcYoQct6mN" fill="rgb(253,252,252)" style="transform: none;"><g><path id="p2AvojldO" d="M10 530 l0 -510 550 0 550 0 0 510 0 510 -550 0 -550 0 0 -510z m479 451 c8 -5 15 -20 17 -33 1 -12 3 -25 3 -28 1 -3 15 -14 31 -24 26 -15 45 -17 123 -12 51 3 113 11 139 18 42 10 50 10 68 -7 11 -10 20 -31 20 -46 0 -23 -9 -34 -42 -55 -36 -23 -39 -28 -24 -36 9 -5 23 -7 30 -5 21 8 35 -13 29 -44 -4 -22 -2 -29 11 -29 29 0 58 -39 51 -68 -4 -15 -11 -30 -17 -33 -6 -4 -1 -10 11 -14 11 -3 21 -11 21 -16 0 -5 9 -9 21 -9 35 0 61 -19 54 -41 -4 -10 -2 -19 4 -19 21 0 -2 -31 -46 -60 -24 -17 -48 -30 -53 -30 -5 0 -16 -13 -25 -29 -38 -75 -118 -97 -218 -60 -34 12 -65 27 -68 32 -4 5 -22 7 -40 3 -19 -3 -43 -7 -54 -9 -11 -2 -30 -9 -41 -15 -11 -6 -30 -8 -42 -5 -12 3 -22 1 -22 -5 0 -6 -6 -17 -13 -24 -7 -7 -26 -30 -42 -51 -32 -43 -90 -77 -133 -77 -38 0 -92 53 -92 91 0 15 -4 31 -10 34 -5 3 -10 23 -10 44 0 36 -2 39 -33 45 -31 6 -33 8 -29 42 3 27 12 41 38 57 37 24 49 69 16 60 -56 -14 -100 46 -69 95 13 23 13 29 -1 60 -17 34 -17 34 13 58 16 12 67 35 114 50 110 35 129 48 141 93 9 35 59 93 90 104 24 9 64 7 79 -2z"></path><path id="p1GpUCDQ33" d="M765 354 l-27 -11 31 -6 c19 -4 45 -1 64 7 l32 13 -36 4 c-20 3 -49 0 -64 -7z"></path><path id="pmSNsfdYe" d="M298 275 c-6 -6 -49 -15 -80 -18 -26 -2 -22 -32 7 -47 22 -12 29 -10 64 13 27 18 38 32 35 42 -6 15 -16 19 -26 10z"></path></g></g></svg>