<svg xmlns="http://www.w3.org/2000/svg"
     width="480" height="480" viewBox="0 0 4800 4800">
    <g stroke-width="1" fill-rule="evenodd">
        <path d="M2366 4762 C2323 4694 2231 4516 2196 4433 C2101 4211 2059 4023 2058 3824 C2058 3634 2084 3506 2171 3281 L2212 3178 2177 3126 C2153 3090 2126 3065 2088 3045 C2035 3015 2034 3015 1820 3009 C1701 3005 1578 2997 1546 2989 L1487 2976 1511 2959 L1534 2941 1504 2934 C1488 2931 1430 2907 1376 2882 C1296 2844 1281 2833 1293 2824 C1307 2814 1302 2806 1263 2764 C1184 2680 1089 2558 1095 2549 C1098 2544 1107 2540 1115 2540 C1123 2540 1130 2535 1130 2530 C1130 2516 1056 2444 977 2380 C932 2344 913 2323 922 2319 C952 2302 1100 2279 1215 2273 C1313 2268 1340 2263 1340 2252 C1340 2244 1346 2240 1357 2243 C1384 2250 1458 2260 1532 2264 C1577 2267 1615 2277 1650 2295 C1688 2314 1704 2318 1709 2310 C1719 2294 1830 2350 1889 2401 C1925 2431 1936 2436 1940 2424 C1943 2413 1963 2435 2001 2491 C2078 2606 2098 2647 2125 2758 C2146 2841 2154 2858 2182 2880 C2200 2893 2233 2921 2255 2942 C2278 2963 2299 2980 2302 2980 C2313 2980 2389 2772 2412 2683 C2430 2611 2434 2567 2433 2450 C2433 2291 2419 2221 2360 2074 C2343 2031 2330 1996 2332 1994 C2338 1988 2413 1959 2415 1962 C2424 1971 2471 2097 2490 2160 C2502 2201 2513 2236 2514 2237 C2517 2241 2662 2161 2673 2150 C2678 2145 2699 2097 2720 2044 C2764 1932 2790 1890 2873 1796 C2921 1741 2935 1731 2940 1745 C2945 1760 2950 1759 2980 1733 C2999 1716 3048 1686 3090 1666 L3165 1629 3167 1653 L3170 1676 3226 1657 C3304 1631 3560 1620 3560 1643 C3560 1659 3572 1662 3750 1694 C3797 1702 3866 1720 3904 1733 L3973 1756 3889 1812 C3757 1900 3713 1950 3767 1950 C3778 1950 3763 1971 3725 2010 C3692 2043 3669 2070 3673 2069 C3684 2069 3604 2136 3555 2168 C3533 2182 3512 2195 3510 2197 C3507 2199 3512 2205 3520 2209 C3527 2214 3532 2220 3529 2222 C3520 2230 3344 2297 3315 2304 L3285 2311 3307 2329 C3329 2347 3328 2348 3232 2355 C3158 2361 3103 2358 3005 2344 C2752 2308 2692 2325 2596 2459 C2558 2513 2540 2548 2540 2568 C2540 2616 2512 2748 2483 2834 C2469 2878 2416 3009 2367 3125 C2206 3503 2173 3638 2183 3888 C2192 4135 2249 4329 2396 4617 L2490 4800 2440 4800 C2393 4800 2388 4797 2366 4762 M2202 3077 C2179 3036 2110 2984 2057 2967 C2030 2959 1954 2954 1855 2954 C1646 2953 1644 2953 1659 2935 C1672 2920 1673 2920 1580 2899 C1515 2884 1463 2864 1455 2850 C1451 2844 1455 2840 1464 2840 C1472 2840 1480 2835 1480 2830 C1480 2824 1474 2820 1468 2820 C1451 2820 1290 2727 1290 2717 C1290 2713 1299 2705 1310 2701 C1328 2695 1321 2687 1260 2646 C1221 2619 1190 2594 1190 2589 C1190 2585 1199 2579 1210 2578 C1229 2575 1228 2570 1189 2515 C1166 2482 1127 2433 1103 2407 C1079 2382 1060 2356 1060 2351 C1060 2340 1191 2330 1331 2330 C1399 2330 1439 2326 1441 2319 C1444 2312 1467 2315 1509 2329 C1560 2347 1574 2348 1581 2338 C1587 2327 1607 2334 1669 2365 C1723 2393 1750 2402 1750 2393 C1750 2370 1764 2378 1814 2429 C1841 2456 1872 2480 1884 2482 C1895 2483 1918 2505 1936 2532 C1955 2560 1970 2574 1973 2567 C1986 2537 2020 2620 2092 2854 C2102 2885 2118 2903 2168 2939 C2204 2964 2242 2997 2253 3012 C2272 3038 2273 3041 2256 3074 C2235 3118 2224 3118 2202 3077 M1911 2820 C1877 2794 1869 2792 1834 2800 C1791 2809 1772 2804 1813 2794 C1847 2786 1846 2778 1812 2758 C1787 2743 1779 2743 1722 2759 C1688 2769 1660 2775 1660 2773 C1660 2771 1682 2758 1710 2745 C1737 2731 1760 2717 1760 2715 C1760 2712 1745 2703 1728 2694 C1705 2682 1682 2679 1641 2684 C1589 2689 1587 2689 1614 2677 L1643 2664 1610 2637 C1592 2622 1569 2610 1559 2610 C1548 2610 1540 2605 1540 2601 C1540 2596 1517 2577 1489 2559 C1426 2519 1431 2510 1498 2544 C1526 2558 1552 2570 1555 2570 C1559 2570 1559 2550 1556 2527 L1550 2485 1576 2535 C1600 2582 1634 2619 1653 2619 C1658 2619 1659 2598 1656 2572 C1651 2528 1652 2529 1668 2588 C1680 2635 1691 2655 1710 2665 C1751 2688 1759 2683 1761 2637 L1762 2595 1771 2647 C1779 2690 1786 2702 1810 2715 C1856 2739 1861 2735 1855 2677 L1849 2625 1876 2698 C1899 2763 1907 2774 1946 2798 C1970 2812 1987 2828 1985 2832 C1972 2851 1946 2847 1911 2820 M2535 2357 C2530 2306 2550 2280 2625 2242 C2717 2196 2724 2187 2779 2060 C2839 1919 2870 1864 2879 1879 C2883 1885 2903 1871 2929 1845 C2953 1820 2976 1802 2980 1805 C2984 1807 3013 1789 3043 1765 C3102 1717 3120 1710 3120 1736 C3120 1744 3125 1750 3132 1747 C3209 1718 3293 1696 3296 1705 C3299 1712 3318 1713 3352 1708 C3424 1698 3452 1698 3445 1708 C3443 1713 3488 1719 3547 1723 C3640 1728 3775 1749 3818 1765 C3828 1768 3819 1782 3788 1807 C3764 1827 3716 1871 3681 1904 C3623 1960 3620 1965 3639 1973 C3650 1978 3660 1986 3660 1990 C3660 1994 3626 2015 3585 2036 C3512 2073 3494 2090 3524 2090 C3532 2090 3541 2094 3544 2099 C3549 2107 3429 2171 3365 2194 C3345 2201 3345 2202 3364 2209 C3392 2219 3374 2226 3269 2244 C3145 2265 3135 2269 3148 2282 C3176 2310 3171 2310 2981 2283 C2780 2255 2674 2275 2590 2359 C2568 2381 2547 2400 2545 2400 C2542 2400 2538 2380 2535 2357 M2840 2155 C2840 2153 2864 2138 2894 2121 C2936 2097 2950 2082 2960 2052 C2971 2021 2974 2018 2979 2035 C2984 2053 2989 2055 3016 2048 C3042 2041 3050 2031 3069 1980 C3081 1947 3093 1920 3096 1920 C3099 1920 3099 1942 3095 1970 C3090 2007 3092 2019 3102 2019 C3131 2018 3164 1989 3181 1948 C3197 1910 3199 1909 3194 1937 C3190 1958 3192 1970 3199 1970 C3220 1970 3254 1948 3278 1921 C3291 1906 3299 1900 3295 1907 C3286 1924 3301 1923 3382 1899 C3420 1887 3453 1880 3455 1882 C3458 1884 3428 1904 3390 1925 C3353 1947 3324 1968 3326 1972 C3328 1976 3317 1977 3301 1973 C3280 1969 3259 1974 3230 1990 C3183 2017 3180 2025 3216 2034 C3230 2038 3239 2043 3236 2046 C3233 2049 3215 2046 3196 2040 C3168 2031 3156 2032 3126 2046 C3106 2055 3090 2066 3090 2069 C3090 2072 3105 2083 3125 2094 C3175 2121 3162 2123 3098 2099 C3053 2082 3039 2080 3014 2090 L2985 2101 3017 2121 C3062 2149 3058 2152 3006 2130 C2963 2112 2961 2112 2921 2130 C2877 2151 2840 2162 2840 2155 "></path>
        <path d="M1614 2016 C1537 1982 1477 1929 1420 1846 C1302 1672 1274 1655 1055 1619 C963 1605 901 1577 855 1530 L817 1491 839 1461 C896 1380 1008 1318 1145 1291 L1230 1274 1195 1224 C1177 1196 1150 1147 1137 1116 C1122 1079 1102 1052 1084 1040 C1068 1030 1046 1013 1036 1002 C997 957 1061 910 1172 902 C1244 897 1254 889 1216 872 C1180 855 1150 784 1150 715 C1149 613 1184 565 1360 427 C1390 403 1435 354 1460 317 C1517 232 1546 202 1591 179 C1664 141 1913 90 2020 89 C2106 89 2139 99 2172 134 L2203 167 2224 127 C2270 39 2390 -8 2540 3 C2750 18 3010 137 3098 259 C3146 325 3172 424 3168 521 C3163 642 3125 718 3017 824 L2934 905 2991 901 C3059 896 3113 918 3199 984 C3259 1030 3365 1142 3420 1217 L3450 1258 3397 1278 C3368 1288 3297 1312 3240 1329 C3043 1389 3004 1414 2829 1585 C2744 1668 2665 1740 2654 1743 C2643 1747 2609 1774 2578 1803 C2485 1893 2356 1940 2199 1940 C2150 1941 2105 1938 2100 1935 C2095 1931 2054 1947 2010 1969 C1906 2021 1838 2040 1745 2040 C1687 2040 1656 2034 1614 2016 M1694 1970 C1601 1951 1542 1902 1450 1766 C1370 1647 1315 1611 1179 1585 C1010 1553 990 1548 959 1526 C910 1493 902 1475 925 1449 C968 1402 1089 1358 1215 1344 L1275 1337 1344 1440 C1507 1681 1726 1860 1930 1918 L1995 1937 1953 1948 C1912 1959 1785 1980 1755 1980 C1746 1980 1719 1975 1694 1970 M1971 1870 C1891 1848 1800 1804 1715 1746 C1630 1689 1466 1521 1390 1412 C1328 1324 1196 1099 1203 1093 C1205 1091 1233 1100 1265 1113 C1298 1127 1370 1147 1425 1158 C1536 1182 1624 1221 1687 1274 L1729 1310 1718 1280 C1704 1238 1642 1177 1587 1151 C1561 1138 1491 1119 1430 1109 C1247 1076 1120 1029 1120 994 C1119 965 1160 957 1274 962 C1497 973 1702 1060 1870 1217 C2031 1366 2180 1437 2477 1506 L2600 1534 2599 1579 C2599 1640 2563 1716 2510 1763 C2389 1872 2148 1920 1971 1870 M2663 1565 C2665 1507 2671 1454 2677 1447 C2694 1426 2737 1336 2769 1255 C2836 1087 2888 1008 2946 983 C3044 942 3153 995 3290 1151 C3328 1194 3360 1233 3360 1238 C3360 1242 3304 1260 3236 1276 C3038 1325 2999 1349 2822 1521 C2738 1603 2667 1670 2665 1670 C2662 1670 2661 1622 2663 1565 M2422 1430 C2249 1384 2072 1309 2085 1289 C2088 1284 2146 1252 2214 1216 C2360 1140 2431 1095 2500 1032 C2528 1007 2552 989 2554 991 C2556 993 2567 1026 2579 1065 C2611 1167 2609 1299 2574 1442 C2568 1466 2547 1464 2422 1430 M2661 1207 C2661 1126 2656 1062 2646 1016 C2637 979 2630 946 2630 944 C2630 942 2650 931 2675 920 C2734 894 2839 793 2869 733 C2896 680 2906 610 2892 585 C2884 570 2881 575 2876 609 C2869 654 2840 715 2806 762 C2780 798 2703 847 2660 856 L2628 862 2658 808 C2721 695 2743 541 2716 410 C2699 331 2681 299 2636 265 C2603 241 2541 240 2425 262 C2381 271 2323 280 2297 284 L2250 289 2250 254 C2250 215 2277 154 2306 127 C2389 52 2619 66 2813 158 C2945 220 3012 276 3051 356 C3081 418 3085 432 3085 514 C3085 628 3072 654 2946 811 C2834 950 2807 996 2735 1168 C2704 1240 2675 1306 2670 1315 C2663 1325 2660 1292 2661 1207 M2000 1224 C2000 1206 2181 1026 2276 949 C2410 842 2488 759 2519 693 C2550 629 2551 536 2521 460 C2487 372 2495 329 2547 329 C2584 329 2627 360 2645 398 C2690 491 2641 764 2559 885 C2506 963 2354 1068 2162 1160 C2041 1219 2000 1235 2000 1224 M1886 1137 C1828 1080 1822 1069 1811 1012 C1802 967 1788 937 1761 902 C1713 842 1700 817 1700 789 C1700 768 1701 768 1717 782 C1747 808 1837 849 1902 866 C1971 884 2075 880 2145 858 L2185 845 2135 842 C1961 833 1819 791 1720 720 C1657 674 1650 677 1650 760 C1650 818 1670 871 1713 929 C1739 963 1749 1010 1729 1010 C1709 1010 1627 924 1604 878 C1571 814 1550 727 1550 664 C1550 612 1550 612 1585 605 C1652 592 1706 609 1792 667 C1974 791 2141 808 2361 726 C2459 689 2467 693 2421 755 C2385 806 2324 860 2223 933 C2151 984 2027 1103 1970 1175 L1950 1200 1886 1137 M1448 918 C1426 911 1371 888 1327 865 C1232 818 1207 782 1206 696 C1205 623 1232 584 1338 506 C1391 468 1444 419 1470 383 C1542 288 1592 244 1656 220 C1745 186 1914 150 2016 143 C2100 137 2108 138 2129 159 C2153 183 2150 210 2121 243 C2098 269 2073 277 1979 289 C1836 307 1785 344 1735 466 L1711 525 1605 525 C1485 525 1485 525 1474 600 C1467 656 1481 742 1515 840 C1528 880 1540 917 1540 921 C1540 933 1496 931 1448 918 M2040 711 C1970 697 1983 690 2078 690 C2178 690 2215 679 2267 635 L2299 608 2324 636 C2338 652 2349 669 2349 675 C2350 701 2120 728 2040 711 M1834 608 C1772 569 1768 564 1774 537 C1798 417 1859 369 2017 345 L2060 339 2019 418 C1976 498 1968 542 1982 612 L1990 650 1945 650 C1909 650 1886 641 1834 608 M2107 642 C2054 611 2047 601 2048 554 C2050 454 2120 402 2255 400 C2414 399 2486 494 2393 581 C2368 604 2367 604 2356 585 C2350 574 2326 545 2303 522 C2247 464 2211 464 2157 521 C2115 565 2114 582 2154 556 C2168 547 2189 540 2202 540 C2227 540 2270 565 2270 580 C2270 585 2247 603 2220 619 C2170 649 2132 657 2107 642 M2445 596 C2464 577 2480 557 2480 550 C2480 544 2484 541 2490 545 C2495 548 2500 566 2500 584 C2500 613 2496 618 2470 623 C2413 635 2408 631 2445 596 M2398 395 C2348 356 2274 345 2183 364 C2142 372 2105 380 2103 380 C2100 380 2108 366 2119 350 C2138 323 2139 321 2122 318 C2108 315 2113 306 2147 272 L2190 230 2190 281 L2190 332 2277 326 C2325 323 2384 317 2408 313 L2452 307 2435 332 C2423 351 2421 363 2429 383 C2444 420 2435 423 2398 395 "></path>
    </g>
</svg>