<svg xmlns="http://www.w3.org/2000/svg" width="546" height="800" viewBox="0 0 5460 8000">
    <path d="M3900 7989 c-463 -31 -863 -334 -986 -746 -35 -119 -44 -303 -20 -423 81 -400 416 -711 870 -807 111 -24 361 -24 472 0 316 67 572 234 732 477 33 50 63 87 65 83 10 -15 56 -266 76 -413 117 -841 87 -2204 -72 -3355 l-22 -159 -140 -38 c-832 -226 -1538 -568 -2526 -1223 -128 -85 -234 -154 -235 -152 -1 1 9 76 22 167 216 1522 266 2893 154 4234 -16 191 -24 246 -40 275 -10 20 -33 79 -50 131 -106 325 -394 579 -769 677 -131 34 -383 43 -515 19 -259 -49 -469 -158 -633 -329 -92 -96 -127 -144 -182 -253 -155 -309 -118 -675 99 -962 281 -373 819 -534 1290 -387 189 60 324 140 464 275 l93 90 7 -82 c3 -46 11 -252 16 -460 19 -749 -21 -1631 -111 -2443 -67 -612 -144 -1134 -270 -1832 -38 -214 -39 -222 -23 -262 20 -50 70 -84 126 -84 35 0 75 24 351 210 621 418 974 631 1384 836 428 215 834 369 1283 487 107 29 205 58 217 66 33 21 52 63 94 210 152 529 275 1472 320 2463 13 294 7 1223 -10 1431 -52 639 -142 1079 -276 1355 -25 50 -56 130 -70 178 -107 371 -445 656 -865 731 -106 19 -198 23 -320 15z m1020 -5850 c-22 -101 -48 -211 -58 -244 -21 -69 5 -55 -242 -124 -782 -217 -1504 -575 -2488 -1233 -74 -49 -136 -87 -139 -84 -4 3 9 96 28 206 l34 199 235 159 c866 586 1441 903 2045 1130 310 116 618 208 623 187 2 -7 -15 -95 -38 -196z"></path>
</svg>