<svg xmlns="http://www.w3.org/2000/svg"
     width="256" height="256" viewBox="0 0 2560 2560">
    <g stroke-width="1" fill-rule="evenodd">
        <path d="M1072 2441 C994 2389 911 2241 884 2105 C871 2043 869 1991 874 1883 L879 1742 787 1673 C621 1550 503 1414 462 1297 C441 1237 434 1094 449 1028 C470 941 516 865 592 793 C686 705 765 668 872 661 C946 657 952 655 961 631 C977 590 977 341 961 298 C945 252 883 194 832 179 C803 170 782 171 739 181 C668 199 663 220 723 243 C772 262 800 303 800 359 C800 461 684 524 598 467 C516 412 507 295 577 201 C647 107 846 99 948 185 C1015 243 1020 262 1020 478 L1020 669 1070 695 C1133 727 1193 781 1221 831 C1233 852 1247 870 1251 870 C1255 870 1275 845 1295 814 C1342 744 1398 698 1485 658 C1543 632 1567 626 1630 626 C1718 626 1821 656 1885 700 C1935 734 1999 812 2031 877 C2066 947 2069 1089 2039 1190 C1968 1432 1811 1601 1425 1855 L1232 1982 1224 2143 C1219 2264 1212 2318 1198 2356 C1161 2456 1128 2478 1072 2441 M1051 2215 C976 2147 919 2002 920 1878 C920 1788 929 1778 976 1819 C1033 1868 1117 1969 1140 2016 C1164 2065 1180 2153 1172 2195 C1161 2259 1109 2268 1051 2215 M1188 1868 C1161 1792 1103 1714 1010 1627 L938 1560 945 1479 C958 1335 956 1337 1027 1319 C1134 1291 1206 1227 1245 1124 C1255 1099 1266 1080 1270 1080 C1275 1079 1295 1091 1315 1104 C1403 1164 1546 1143 1583 1066 C1609 1011 1605 956 1570 917 C1542 885 1539 884 1445 881 L1350 878 1350 851 C1350 816 1401 754 1451 728 C1503 702 1599 687 1658 695 C1718 704 1778 763 1810 846 C1841 926 1849 1114 1825 1215 C1804 1303 1735 1445 1671 1530 C1571 1661 1275 1930 1230 1930 C1214 1930 1205 1916 1188 1868 M814 1474 C788 1454 732 1404 688 1362 C580 1259 536 1172 531 1052 C528 975 530 963 559 904 C613 794 724 717 851 702 C877 699 909 700 924 703 C949 710 949 711 949 802 C948 912 927 1145 917 1156 C903 1169 827 1125 803 1089 C748 1007 751 944 811 876 C857 823 859 815 822 824 C782 834 734 884 709 943 C691 985 688 1005 693 1058 C703 1170 761 1251 865 1302 L910 1323 909 1379 C909 1410 907 1451 904 1472 C898 1521 875 1521 814 1474 M981 1067 C981 1016 987 921 993 855 C1003 747 1007 734 1025 732 C1047 728 1112 787 1137 834 C1163 880 1160 1003 1134 1055 C1112 1098 1032 1160 1000 1160 C981 1160 980 1153 981 1067 "></path>
        <path d="M2192 1230 C2155 1217 2140 1193 2140 1150 C2140 1094 2162 1070 2214 1070 C2250 1070 2262 1075 2279 1096 C2333 1165 2273 1258 2192 1230 "></path>
        <path d="M2140 864 C2126 853 2120 837 2120 810 C2120 755 2127 742 2164 730 C2207 715 2244 730 2264 769 C2284 808 2284 821 2260 853 C2244 874 2231 880 2200 880 C2178 880 2151 872 2140 864 "></path>
    </g>
</svg>