<?xml version="1.0" encoding="UTF-8"?>
<svg width="110" height="102" version="1.1" viewBox="0 0 1100 1020" xmlns="http://www.w3.org/2000/svg">
 <g transform="matrix(1.065 0 0 1.1091 -23.836 -91.373)">
  <g transform="translate(-10,-20)" fill="#0e0d0e">
   <path d="m10 530v-510h1100v1020h-1100z"/>
  </g>
  <g transform="translate(-10,-20)" fill="#b9b8b8">
   <path d="m10 530v-510h1100v1020h-1100zm504 376c103-53 187-117 258-195 59-65 123-173 133-223 3-18 11-43 17-55 15-31 2-71-36-109-82-82-234-38-346 103-19 24-38 43-41 43-6 0-34-71-46-115-2-11-26-51-52-90-51-76-104-115-157-115-40 0-94 51-94 91 0 15-4 31-10 34-23 14 3 291 31 320 5 5 9 15 9 23 0 23 68 152 106 202 55 71 114 130 129 130 8 0 53-20 99-44z"/>
   <path d="m384 858c-75-81-153-222-179-323-15-59-20-225-9-283 8-39 43-59 75-42 30 15 79 61 79 72 0 5 11 26 25 46s25 45 25 54c0 10 4 18 9 18s16 30 26 68c33 132 46 140 96 60 82-135 163-198 255-198 63 0 84 19 84 78 0 22-4 43-9 46-4 3-11 18-14 33-15 76-165 253-277 330-56 37-125 73-143 73-7 0-27-15-43-32z"/>
  </g>
  <g transform="translate(-10,-20)" fill="#fff">
   <path d="m10 530v-510h1100v1020h-1100zm479 451c8-5 15-20 17-33 1-12 3-25 3-28 1-3 15-14 31-24 26-15 45-17 123-12 51 3 113 11 139 18 42 10 50 10 68-7 11-10 20-31 20-46 0-23-9-34-42-55-36-23-39-28-24-36 9-5 23-7 30-5 21 8 35-13 29-44-4-22-2-29 11-29 29 0 58-39 51-68-4-15-11-30-17-33-6-4-1-10 11-14 11-3 21-11 21-16s9-9 21-9c35 0 61-19 54-41-4-10-2-19 4-19 21 0-2-31-46-60-24-17-48-30-53-30s-16-13-25-29c-38-75-118-97-218-60-34 12-65 27-68 32-4 5-22 7-40 3-19-3-43-7-54-9s-30-9-41-15-30-8-42-5-22 1-22-5-6-17-13-24-26-30-42-51c-32-43-90-77-133-77-38 0-92 53-92 91 0 15-4 31-10 34-5 3-10 23-10 44 0 36-2 39-33 45s-33 8-29 42c3 27 12 41 38 57 37 24 49 69 16 60-56-14-100 46-69 95 13 23 13 29-1 60-17 34-17 34 13 58 16 12 67 35 114 50 110 35 129 48 141 93 9 35 59 93 90 104 24 9 64 7 79-2z"/>
   <path d="m765 354-27-11 31-6c19-4 45-1 64 7l32 13-36 4c-20 3-49 0-64-7z"/>
   <path d="m298 275c-6-6-49-15-80-18-26-2-22-32 7-47 22-12 29-10 64 13 27 18 38 32 35 42-6 15-16 19-26 10z"/>
  </g>
 </g>
</svg>
